<svg xmlns="http://www.w3.org/2000/svg" version="1.1" xmlns:xlink="http://www.w3.org/1999/xlink" xmlns:svgjs="http://svgjs.com/svgjs" width="3890.000000pt" height="2918.000000pt"><svg version="1.0" xmlns="http://www.w3.org/2000/svg" width="3890.000000pt" height="2918.000000pt" viewBox="0 0 3890.000000 2918.000000" preserveAspectRatio="xMidYMid meet">

<g transform="translate(0.000000,2918.000000) scale(0.100000,-0.100000)" fill="#000000" stroke="none">
<path d="M21185 27833 c-818 -54 -1839 -260 -3075 -619 -305 -89 -585 -176
-1170 -364 -3544 -1139 -6309 -2253 -8209 -3307 -232 -129 -805 -467 -1056
-623 -1001 -623 -1647 -1139 -1986 -1589 -242 -322 -360 -633 -346 -911 10
-193 73 -336 212 -476 171 -174 381 -272 820 -384 800 -204 2224 -391 3345
-440 135 -6 337 -15 450 -20 113 -6 345 -15 515 -20 622 -20 1332 -63 1775
-105 1125 -109 1989 -377 2489 -773 347 -275 515 -639 514 -1112 -1 -284 -66
-590 -175 -834 -67 -148 -84 -239 -53 -283 32 -46 220 -72 283 -39 66 35 120
127 170 291 137 447 167 632 159 980 -6 242 -21 338 -78 502 -161 454 -609
868 -1212 1118 -349 144 -876 290 -1362 379 -486 88 -1427 187 -2290 241 -137
9 -299 20 -360 25 -144 12 -728 47 -920 55 -236 10 -410 24 -685 55 -1086 126
-1797 262 -2278 436 -406 147 -591 296 -662 533 -19 62 -22 88 -17 169 7 118
33 176 145 314 191 237 417 463 654 653 326 261 979 693 1483 982 747 428
1813 929 3096 1453 1562 639 3487 1277 6093 2020 1483 422 2439 640 3261 744
805 101 1328 17 1610 -259 109 -107 177 -249 221 -460 23 -111 26 -431 5 -570
-96 -645 -500 -1733 -916 -2465 -1000 -1761 -2738 -4345 -4194 -6235 -608
-789 -1669 -2094 -1851 -2275 -211 -212 -442 -397 -641 -515 -205 -122 -317
-173 -669 -305 -2353 -882 -4456 -1897 -6115 -2949 -1294 -820 -2424 -1704
-3118 -2436 -705 -744 -1084 -1325 -1188 -1819 -30 -140 -30 -348 -1 -459 79
-291 332 -514 684 -601 261 -65 536 -60 913 15 1039 207 2375 942 4015 2208
989 763 1995 1664 3160 2830 792 793 1446 1487 2229 2371 499 561 530 592 819
825 323 260 604 434 933 579 166 72 1287 465 2372 831 l377 128 0 74 c0 66 -2
74 -17 69 -10 -3 -135 -40 -278 -81 -556 -162 -1299 -390 -1925 -591 -483
-154 -553 -174 -615 -174 -97 0 -129 54 -86 145 27 57 91 142 297 393 1246
1513 2960 3774 3997 5272 1027 1483 1667 2531 2091 3426 380 803 590 1420 662
1949 25 181 25 528 0 680 -132 819 -626 1240 -1573 1340 -125 13 -573 18 -728
8z m-6705 -14338 c42 -22 47 -62 16 -130 -36 -79 -88 -144 -376 -465 -1518
-1696 -2864 -3064 -3975 -4040 -72 -63 -217 -193 -323 -288 -767 -688 -1556
-1297 -2273 -1755 -285 -182 -449 -276 -674 -387 -568 -279 -1094 -420 -1635
-437 -382 -11 -527 26 -674 173 -176 176 -209 406 -105 731 74 232 289 574
596 948 586 715 1287 1349 2323 2102 1062 771 2002 1335 3325 1993 649 323
1218 587 1869 867 432 186 1487 613 1651 669 112 38 205 45 255 19z"></path>
<path d="M32415 25153 c-386 -38 -809 -238 -1375 -652 -472 -345 -1215 -1040
-1881 -1761 -905 -980 -1799 -2021 -2630 -3065 -761 -956 -2121 -2742 -3068
-4030 -418 -567 -1079 -1455 -1110 -1488 -49 -54 -69 -59 -320 -73 -789 -44
-3574 -261 -4621 -359 -201 -18 -401 -37 -445 -40 -44 -3 -262 -24 -485 -46
-391 -38 -407 -41 -467 -70 -67 -32 -110 -76 -145 -149 -34 -69 -31 -187 5
-258 15 -29 46 -70 68 -92 42 -40 129 -80 177 -80 50 0 386 -41 542 -66 476
-76 979 -212 1285 -346 461 -203 880 -508 1092 -794 233 -316 336 -781 264
-1187 -44 -252 -115 -471 -226 -704 -131 -274 -235 -422 -492 -698 -187 -201
-236 -241 -317 -264 -311 -86 -471 -463 -312 -735 112 -191 424 -258 655 -142
165 84 424 292 562 453 382 443 522 615 825 1018 874 1162 1918 2590 2793
3820 173 242 338 475 368 517 33 45 68 83 87 92 42 19 631 62 1471 106 1512
79 2733 91 3860 40 247 -11 719 -39 720 -43 0 -1 25 -40 54 -86 29 -47 50 -92
48 -100 -30 -108 -1359 -3370 -2015 -4946 -80 -192 -155 -377 -167 -410 -12
-33 -140 -350 -284 -705 -596 -1461 -1517 -3781 -1756 -4420 -172 -461 -425
-1194 -465 -1350 -11 -41 -42 -149 -70 -240 -109 -350 -199 -750 -221 -980
-17 -183 0 -335 52 -470 37 -98 75 -142 154 -181 58 -28 72 -31 126 -26 73 6
153 43 208 97 100 97 124 224 66 350 -27 60 -29 76 -33 204 -6 209 38 468 178
1041 270 1101 501 1767 1603 4630 863 2240 2863 7323 2943 7477 8 15 33 37 56
49 38 19 53 21 138 15 194 -13 588 -77 905 -148 238 -53 396 -99 530 -154 202
-83 215 -87 280 -81 188 14 332 214 281 390 -20 70 -64 129 -121 163 -170 99
-735 180 -1500 214 -258 12 -286 18 -312 71 -30 57 -18 97 133 467 787 1922
1715 4379 2214 5857 60 176 144 422 188 546 191 538 355 1091 506 1709 157
638 185 806 193 1140 9 393 -18 555 -118 705 -30 45 -76 96 -112 125 -68 55
-187 118 -251 133 -44 10 -245 17 -311 10z m164 -599 c17 -17 59 -169 72 -254
31 -216 -22 -776 -122 -1275 -170 -853 -385 -1655 -684 -2550 -494 -1485
-1196 -3414 -1867 -5130 -269 -688 -339 -859 -361 -884 -45 -49 -48 -49 -678
-61 -1698 -29 -3145 -85 -4759 -181 -283 -17 -537 -29 -564 -26 -78 7 -120 70
-100 146 25 92 2228 3121 3140 4318 891 1168 2023 2578 2614 3253 829 948
1513 1628 2117 2108 364 288 703 470 993 533 86 18 184 20 199 3z m-10629
-10709 c51 -26 74 -97 51 -158 -5 -13 -88 -130 -183 -258 -96 -129 -273 -369
-393 -534 -324 -445 -788 -1073 -1232 -1667 -356 -476 -398 -529 -439 -549
-41 -19 -50 -20 -85 -10 -73 22 -102 76 -92 174 13 131 -35 446 -94 612 -100
282 -317 604 -534 791 -427 368 -891 628 -1454 814 -151 50 -170 60 -184 102
-35 100 26 188 138 202 25 3 231 31 456 61 1216 163 2406 297 3495 394 184 17
351 32 370 34 86 9 152 6 180 -8z"></path>
</g>
</svg><style>@media (prefers-color-scheme: light) { :root { filter: contrast(1) brightness(0.7); } }
</style></svg>