<?xml version="1.0" standalone="no"?>
<!DOCTYPE svg PUBLIC "-//W3C//DTD SVG 20010904//EN"
 "http://www.w3.org/TR/2001/REC-SVG-20010904/DTD/svg10.dtd">
<svg version="1.0" xmlns="http://www.w3.org/2000/svg"
 width="3890.000000pt" height="3890.000000pt" viewBox="0 0 3890.000000 3890.000000"
 preserveAspectRatio="xMidYMid meet">
<metadata>
Created by potrace 1.14, written by Peter Selinger 2001-2017
</metadata>
<g transform="translate(0.000000,3890.000000) scale(0.100000,-0.100000)"
fill="#000000" stroke="none">
<path d="M21377 32704 c-1 -1 -71 -5 -156 -8 -85 -4 -157 -9 -160 -10 -3 -2
-46 -7 -96 -11 -49 -3 -103 -8 -120 -10 -16 -2 -55 -6 -85 -10 -30 -3 -66 -7
-80 -10 -14 -2 -47 -7 -75 -10 -68 -8 -100 -13 -245 -36 -204 -32 -276 -45
-375 -64 -38 -8 -81 -16 -95 -19 -25 -5 -152 -30 -200 -40 -14 -3 -38 -8 -55
-12 -115 -23 -587 -135 -765 -181 -217 -56 -873 -240 -1030 -289 -362 -112
-516 -160 -840 -264 -654 -209 -1621 -533 -2080 -695 -309 -109 -481 -170
-525 -185 -98 -34 -413 -150 -645 -236 -129 -48 -271 -100 -315 -115 -44 -16
-96 -36 -115 -43 -19 -8 -132 -51 -250 -96 -118 -45 -224 -86 -235 -91 -11 -4
-45 -18 -75 -29 -30 -11 -64 -25 -75 -29 -11 -5 -126 -51 -255 -102 -214 -84
-394 -156 -445 -179 -11 -4 -141 -58 -290 -120 -148 -61 -283 -117 -300 -125
-16 -7 -75 -32 -129 -55 -54 -23 -106 -46 -115 -50 -9 -5 -70 -32 -136 -61
-66 -29 -142 -62 -170 -74 -27 -12 -90 -41 -140 -63 -49 -22 -119 -53 -155
-70 -36 -16 -87 -39 -115 -52 -49 -22 -110 -50 -355 -165 -349 -165 -1058
-528 -1367 -701 -67 -38 -275 -157 -333 -191 -25 -14 -58 -34 -75 -43 -16 -10
-52 -31 -80 -48 -27 -16 -151 -91 -275 -164 -749 -447 -1360 -876 -1785 -1251
-73 -65 -302 -293 -345 -343 -266 -315 -412 -584 -465 -859 -8 -43 -12 -119
-11 -195 3 -103 8 -139 30 -205 95 -291 345 -486 792 -618 130 -39 321 -88
436 -113 40 -8 80 -17 88 -19 8 -2 71 -15 140 -28 111 -22 168 -33 275 -52 17
-2 41 -7 55 -10 21 -4 355 -57 450 -71 82 -12 204 -28 290 -39 22 -3 58 -7 80
-10 68 -9 124 -16 150 -20 25 -4 60 -8 180 -20 36 -4 76 -8 90 -10 14 -2 50
-6 80 -10 30 -3 96 -9 145 -15 50 -5 115 -11 145 -14 30 -3 82 -8 115 -11 33
-3 83 -8 110 -10 87 -9 258 -21 400 -30 229 -13 281 -16 405 -21 236 -9 322
-12 465 -19 266 -11 341 -14 520 -20 99 -3 221 -7 270 -10 50 -3 146 -7 215
-10 69 -3 154 -8 190 -10 36 -2 119 -6 185 -10 66 -3 136 -8 155 -10 19 -2 85
-7 145 -10 61 -4 128 -9 150 -11 22 -2 78 -6 125 -9 47 -3 103 -8 125 -10 41
-4 124 -12 210 -20 28 -3 68 -7 90 -10 45 -5 112 -13 169 -21 22 -2 51 -6 65
-9 14 -2 85 -13 156 -25 72 -11 142 -22 158 -25 15 -3 37 -7 50 -9 362 -67
804 -189 1001 -275 23 -10 70 -31 106 -46 117 -50 213 -98 320 -158 90 -51
214 -130 230 -147 3 -3 35 -29 71 -58 360 -283 530 -720 486 -1252 -4 -47 -9
-94 -11 -105 -2 -11 -7 -40 -11 -65 -8 -49 -16 -89 -19 -105 -40 -159 -81
-287 -123 -385 -72 -166 -89 -252 -58 -297 19 -28 95 -53 173 -57 131 -7 197
58 270 269 26 76 108 374 118 430 3 17 9 48 14 70 5 22 12 63 15 90 4 28 8 57
10 65 2 8 7 58 11 110 32 405 -32 744 -190 1000 -214 347 -573 641 -1036 848
-139 62 -411 157 -665 231 -237 69 -706 172 -940 206 -22 4 -51 8 -65 11 -14
2 -77 11 -140 19 -63 9 -126 18 -140 20 -14 2 -54 6 -90 10 -36 4 -76 8 -90
10 -14 2 -52 6 -85 10 -33 3 -71 8 -85 10 -14 2 -56 6 -95 10 -38 3 -81 8 -95
10 -21 3 -82 9 -215 20 -16 2 -59 6 -95 9 -110 11 -153 15 -215 20 -33 3 -89
8 -125 11 -36 3 -94 8 -130 10 -81 5 -200 14 -265 20 -27 2 -102 7 -165 10
-63 3 -133 7 -155 10 -22 2 -80 7 -130 10 -49 3 -119 8 -155 11 -36 3 -87 7
-115 9 -27 2 -99 7 -160 10 -60 3 -137 8 -170 10 -94 8 -248 16 -390 20 -71 2
-164 6 -205 9 -41 3 -111 8 -155 11 -44 3 -96 8 -115 10 -19 3 -77 9 -128 15
-51 6 -112 13 -135 15 -23 3 -64 8 -92 11 -27 3 -61 7 -75 9 -14 2 -47 7 -75
10 -72 8 -136 16 -165 20 -14 2 -47 7 -75 10 -27 3 -61 8 -75 10 -14 2 -45 7
-70 10 -25 4 -56 8 -70 10 -14 2 -45 7 -70 10 -57 8 -67 9 -225 35 -71 12
-143 24 -160 27 -16 2 -75 13 -130 23 -55 11 -111 21 -125 24 -271 47 -696
164 -920 252 -124 49 -285 134 -354 186 -68 51 -139 132 -181 207 -82 143 -85
338 -8 466 30 49 134 185 178 231 5 6 42 46 80 89 173 193 308 319 535 496
432 338 1136 789 1745 1118 284 154 987 502 1185 588 19 8 46 21 60 28 14 7
66 31 115 53 50 22 115 51 145 65 47 22 147 66 278 123 17 8 47 20 65 28 132
58 358 154 492 210 88 37 173 73 188 81 16 8 33 15 38 15 4 0 32 11 61 24 29
13 100 42 158 66 58 23 119 48 135 55 17 7 62 25 100 40 39 15 84 33 100 40
48 21 531 206 765 293 596 222 1520 537 2255 771 416 132 490 155 500 157 6 1
53 16 105 33 105 33 786 241 810 246 8 2 83 23 165 48 83 24 159 47 170 50 11
3 67 20 125 37 110 33 750 218 785 227 11 3 88 25 170 49 141 40 291 82 570
159 117 32 385 104 415 111 8 1 150 37 315 78 277 69 497 122 553 132 13 3 74
15 135 29 62 13 123 26 137 29 14 3 79 16 146 30 67 14 136 28 155 31 19 3 72
13 119 21 117 22 110 21 255 44 202 33 181 30 380 54 250 32 354 39 565 39
613 2 1004 -155 1158 -467 24 -48 45 -94 47 -104 2 -9 8 -29 14 -45 16 -42 40
-152 48 -221 20 -167 2 -510 -32 -636 -2 -8 -6 -33 -10 -55 -3 -22 -12 -64
-20 -95 -8 -30 -16 -66 -19 -80 -3 -14 -15 -59 -26 -100 -12 -41 -25 -88 -30
-105 -35 -128 -136 -435 -170 -520 -6 -16 -13 -37 -15 -45 -5 -25 -164 -420
-215 -535 -169 -379 -263 -571 -380 -775 -45 -80 -88 -154 -94 -165 -86 -154
-324 -554 -499 -838 -83 -136 -161 -263 -172 -281 -97 -160 -524 -829 -694
-1087 -53 -80 -100 -153 -106 -162 -19 -31 -489 -732 -495 -737 -3 -3 -47 -68
-99 -145 -150 -221 -415 -604 -645 -928 -116 -164 -218 -308 -226 -320 -162
-239 -1139 -1554 -1313 -1767 -7 -8 -35 -44 -62 -80 -28 -36 -52 -67 -55 -70
-3 -3 -73 -90 -155 -195 -83 -104 -157 -199 -167 -210 -9 -11 -94 -117 -188
-235 -94 -118 -186 -233 -203 -254 -18 -22 -54 -67 -82 -101 -27 -34 -66 -81
-85 -105 -54 -66 -369 -452 -394 -480 -11 -14 -41 -50 -66 -80 -25 -30 -49
-60 -55 -66 -5 -6 -26 -31 -45 -55 -145 -182 -544 -526 -765 -658 -225 -135
-336 -185 -730 -334 -386 -145 -678 -259 -1100 -430 -466 -188 -433 -174 -840
-352 -348 -152 -702 -311 -905 -407 -36 -17 -105 -50 -155 -73 -551 -259
-1330 -655 -1779 -904 -718 -399 -1196 -690 -1831 -1116 -253 -170 -601 -412
-760 -529 -214 -158 -373 -279 -585 -444 -58 -46 -383 -312 -415 -340 -17 -15
-59 -52 -95 -82 -35 -30 -72 -62 -80 -70 -9 -8 -52 -46 -95 -85 -257 -230
-542 -514 -800 -799 -15 -16 -118 -137 -146 -170 -13 -16 -29 -34 -34 -40 -84
-91 -338 -435 -415 -561 -23 -38 -51 -82 -62 -98 -30 -44 -155 -287 -188 -368
-46 -109 -82 -220 -97 -299 -47 -239 -38 -424 30 -585 27 -65 104 -180 153
-229 158 -158 404 -274 639 -300 28 -3 70 -8 95 -12 54 -6 251 -7 300 0 19 3
62 8 95 11 398 41 922 201 1455 445 142 65 391 188 482 238 29 16 85 47 123
68 39 21 107 59 153 86 46 26 85 48 86 48 3 0 263 157 379 229 32 20 66 41 75
46 125 74 911 610 932 635 3 3 21 17 40 30 173 118 1056 803 1220 946 14 12
77 66 140 119 63 53 126 107 140 118 14 12 55 47 90 77 36 30 67 57 70 60 3 3
39 34 80 70 41 36 86 75 100 87 14 12 36 31 49 42 21 18 160 143 185 166 6 6
49 44 96 85 46 41 91 82 100 90 9 8 39 35 66 60 27 25 83 77 124 115 41 38
135 125 208 194 74 69 143 133 154 143 153 133 1245 1218 1608 1598 299 313
470 494 535 565 15 17 73 80 129 140 57 61 114 122 127 136 74 82 128 141 178
195 31 33 90 98 131 144 41 45 80 88 85 94 6 6 48 54 95 106 47 52 87 97 90
100 7 7 239 267 276 309 16 19 34 39 39 45 6 6 58 65 117 131 224 253 375 392
668 616 231 176 387 274 640 399 96 48 216 104 265 123 82 33 670 242 705 252
8 2 87 29 175 60 317 113 932 323 1465 502 157 52 292 99 300 103 11 6 15 25
14 74 -1 37 -3 68 -5 70 -9 9 -974 -277 -1584 -469 -99 -31 -196 -61 -215 -67
-19 -5 -60 -18 -90 -28 -30 -10 -136 -43 -235 -74 -99 -31 -205 -65 -235 -75
-83 -29 -340 -108 -380 -119 -19 -5 -61 -10 -92 -11 -50 -2 -61 1 -83 23 -32
32 -32 67 1 131 32 64 76 121 314 412 107 131 200 245 207 253 7 8 56 69 109
135 53 66 106 131 117 145 12 14 37 46 56 70 19 25 41 52 48 60 11 12 140 174
255 321 15 19 66 84 114 144 47 61 98 125 113 144 14 19 44 57 67 85 248 311
943 1219 1412 1846 84 113 161 215 170 227 20 26 3 3 249 336 106 144 235 320
286 390 50 70 110 152 132 183 66 90 437 612 475 668 20 28 62 89 95 136 32
47 73 105 90 130 17 25 56 81 85 125 30 44 58 85 63 90 39 50 568 844 748
1125 243 377 289 451 289 459 0 4 8 16 18 27 10 10 21 26 25 34 4 8 17 32 29
52 45 73 266 444 285 478 11 19 66 118 123 220 192 344 454 875 595 1205 167
392 337 867 380 1060 3 11 11 47 19 80 9 33 18 75 21 94 3 19 7 37 9 40 2 3 7
31 11 61 4 30 9 58 10 61 2 3 7 28 10 55 4 27 8 56 10 64 19 71 27 481 12 615
-9 87 -20 147 -52 286 -20 89 -86 261 -138 359 -115 219 -300 404 -534 533
-157 86 -374 163 -572 202 -42 8 -85 16 -96 19 -11 2 -51 7 -88 11 -37 3 -76
8 -85 10 -61 11 -545 28 -555 19z m-6897 -14349 c30 -16 34 -25 32 -83 -2 -52
-84 -170 -226 -327 -41 -44 -95 -105 -121 -135 -27 -30 -51 -57 -54 -60 -3 -3
-24 -25 -45 -50 -21 -25 -60 -68 -85 -95 -25 -28 -82 -91 -126 -140 -44 -50
-103 -115 -131 -145 -28 -30 -102 -111 -164 -180 -62 -69 -140 -154 -174 -190
-34 -36 -86 -92 -116 -125 -74 -80 -275 -297 -325 -350 -22 -23 -98 -104 -169
-179 -172 -182 -169 -179 -416 -437 -233 -243 -992 -1003 -1186 -1189 -154
-147 -420 -399 -459 -435 -89 -80 -221 -202 -235 -215 -16 -15 -198 -179 -259
-233 -19 -17 -73 -64 -120 -105 -47 -41 -108 -95 -136 -121 -66 -61 -315 -282
-389 -346 -33 -27 -69 -59 -81 -70 -110 -104 -597 -500 -870 -709 -77 -58
-151 -115 -165 -126 -14 -11 -92 -68 -175 -127 -82 -59 -152 -110 -155 -113
-3 -3 -18 -14 -35 -26 -16 -11 -53 -36 -80 -56 -261 -183 -681 -451 -880 -563
-173 -96 -447 -229 -585 -282 -36 -14 -78 -31 -95 -38 -86 -35 -402 -135 -475
-149 -14 -3 -52 -12 -85 -20 -33 -8 -80 -17 -105 -21 -24 -4 -48 -9 -51 -11
-4 -2 -27 -6 -51 -9 -23 -2 -54 -7 -68 -9 -36 -7 -104 -15 -190 -23 -80 -7
-408 -9 -500 -3 -186 12 -351 113 -452 275 -80 127 -95 308 -44 525 80 340
360 760 950 1425 93 105 485 496 605 605 52 47 99 90 105 95 6 6 43 37 81 69
39 33 75 64 80 70 6 6 31 28 57 49 26 21 53 43 60 50 7 7 60 51 118 97 58 47
107 87 110 90 33 35 489 383 815 622 398 293 1040 719 1470 977 94 56 177 106
185 111 25 15 391 226 440 253 25 13 108 59 185 101 77 42 147 81 155 86 8 5
58 31 110 58 52 28 147 77 210 111 126 67 883 445 1075 536 111 53 564 263
680 315 28 12 83 38 123 56 41 19 75 34 78 34 2 0 38 16 80 35 41 19 77 35 79
35 2 0 32 13 67 29 158 73 303 134 653 278 154 63 294 121 310 128 74 33 885
354 930 368 100 31 189 36 235 12z"/>
<path d="M32417 30014 c-1 -1 -24 -5 -52 -8 -219 -24 -535 -138 -759 -274 -37
-23 -70 -42 -73 -42 -5 0 -78 -46 -176 -111 -32 -22 -60 -39 -62 -39 -8 0
-243 -168 -355 -254 -128 -97 -348 -279 -414 -341 -12 -11 -44 -40 -71 -64
-67 -59 -153 -139 -310 -285 -142 -133 -699 -687 -810 -806 -175 -188 -296
-319 -341 -369 -27 -30 -58 -64 -69 -75 -11 -12 -81 -89 -155 -171 -74 -83
-151 -168 -171 -190 -46 -50 -354 -398 -434 -490 -33 -38 -64 -73 -70 -79 -5
-6 -35 -40 -65 -76 -30 -36 -57 -67 -60 -70 -3 -3 -64 -72 -134 -155 -71 -82
-138 -161 -150 -175 -35 -41 -207 -243 -225 -265 -9 -11 -63 -76 -121 -145
-58 -69 -113 -134 -122 -145 -14 -17 -104 -126 -213 -260 -18 -22 -66 -80
-107 -130 -146 -178 -479 -595 -697 -875 -123 -157 -230 -294 -239 -305 -10
-12 -53 -68 -96 -125 -44 -58 -82 -107 -85 -110 -4 -3 -35 -43 -71 -90 -36
-47 -191 -250 -345 -451 -154 -201 -291 -381 -305 -399 -14 -19 -34 -45 -46
-59 -48 -60 -1058 -1403 -1142 -1519 -9 -13 -39 -53 -67 -90 -131 -176 -352
-475 -552 -747 -121 -165 -321 -435 -445 -600 -123 -165 -271 -363 -328 -440
-56 -77 -114 -153 -129 -168 -51 -56 -67 -60 -326 -72 -66 -3 -145 -8 -175
-10 -30 -2 -95 -7 -145 -10 -49 -4 -115 -8 -145 -10 -88 -5 -235 -15 -276 -19
-22 -2 -86 -7 -144 -11 -58 -3 -123 -8 -145 -10 -22 -3 -83 -7 -135 -10 -52
-3 -115 -8 -140 -10 -55 -6 -144 -12 -275 -21 -55 -3 -116 -8 -135 -9 -19 -2
-73 -6 -120 -10 -47 -3 -110 -8 -140 -10 -30 -2 -93 -7 -140 -10 -47 -4 -96
-8 -110 -10 -14 -2 -72 -7 -130 -10 -58 -3 -116 -8 -130 -10 -14 -2 -68 -7
-120 -10 -52 -4 -111 -8 -130 -10 -32 -3 -81 -7 -260 -20 -36 -3 -83 -7 -105
-9 -22 -3 -80 -7 -130 -11 -49 -4 -106 -8 -125 -10 -19 -2 -77 -6 -129 -10
-52 -4 -102 -8 -111 -10 -10 -2 -59 -6 -111 -10 -52 -3 -110 -8 -130 -10 -20
-2 -71 -6 -115 -10 -43 -3 -97 -8 -119 -10 -22 -2 -71 -7 -110 -9 -38 -3 -97
-8 -130 -11 -33 -3 -85 -8 -115 -11 -55 -5 -118 -11 -195 -19 -22 -2 -71 -7
-110 -10 -38 -3 -88 -7 -110 -10 -46 -5 -144 -13 -230 -20 -33 -3 -85 -7 -115
-10 -30 -2 -83 -7 -117 -10 -35 -3 -80 -7 -100 -9 -21 -3 -69 -7 -108 -11 -38
-3 -81 -8 -95 -10 -14 -2 -56 -6 -95 -10 -38 -3 -83 -8 -100 -10 -16 -2 -57
-7 -90 -10 -118 -11 -222 -83 -268 -185 -30 -67 -29 -189 2 -253 33 -67 101
-132 164 -155 29 -11 109 -25 182 -32 72 -7 137 -13 145 -15 8 -1 42 -6 75 -9
97 -12 366 -54 445 -71 14 -3 41 -8 60 -11 19 -3 91 -20 160 -36 69 -16 134
-31 145 -34 47 -9 323 -87 408 -115 299 -100 567 -232 837 -412 346 -232 539
-434 680 -716 34 -68 105 -274 115 -331 3 -19 10 -60 15 -90 30 -172 33 -364
6 -505 -2 -11 -7 -40 -11 -65 -4 -25 -9 -54 -12 -65 -2 -11 -6 -31 -9 -45 -15
-75 -91 -328 -104 -345 -4 -5 -10 -23 -14 -40 -11 -47 -169 -359 -234 -463
-75 -121 -236 -312 -409 -487 -175 -177 -170 -174 -239 -191 -88 -24 -153 -62
-225 -134 -169 -169 -209 -396 -102 -591 94 -174 344 -257 569 -190 147 44
400 222 584 411 134 138 514 594 726 870 189 246 1015 1355 1162 1559 9 12 24
33 33 45 10 12 71 96 137 186 67 91 125 170 129 175 5 6 93 127 197 270 104
143 213 292 241 330 75 102 311 428 546 755 113 157 249 346 303 420 53 74
120 169 149 210 28 41 55 80 60 85 13 16 347 486 372 525 37 58 85 98 124 104
20 4 72 8 116 11 44 3 100 7 125 10 25 2 90 7 145 10 55 4 116 8 135 10 19 2
89 6 155 10 66 3 143 8 170 10 28 2 95 7 150 10 55 3 138 7 185 10 47 3 132 7
190 10 58 3 139 7 180 10 41 2 134 7 205 10 72 3 175 8 230 10 55 2 168 7 250
10 83 3 202 8 265 10 125 5 388 13 705 21 221 5 1062 5 1305 -1 317 -7 867
-28 1070 -41 30 -1 111 -6 180 -10 69 -4 136 -8 150 -9 14 -1 43 -3 65 -4 38
-1 42 -4 73 -58 18 -32 42 -73 54 -91 l20 -33 -227 -567 c-124 -312 -233 -580
-240 -597 -7 -16 -41 -100 -74 -185 -34 -85 -66 -164 -71 -175 -5 -11 -59
-141 -119 -290 -60 -148 -135 -333 -166 -410 -31 -77 -70 -174 -87 -215 -16
-41 -36 -88 -43 -105 -7 -16 -32 -77 -55 -135 -23 -58 -50 -124 -61 -147 -10
-23 -19 -44 -19 -48 0 -3 -9 -27 -21 -53 -12 -26 -24 -56 -29 -67 -4 -11 -17
-42 -28 -70 -12 -27 -49 -117 -82 -200 -34 -82 -65 -159 -70 -170 -5 -11 -50
-121 -101 -245 -50 -124 -97 -238 -104 -255 -8 -16 -25 -59 -40 -95 -14 -36
-30 -74 -35 -85 -4 -11 -25 -60 -45 -110 -21 -49 -43 -103 -50 -120 -8 -16
-84 -201 -171 -410 -135 -328 -198 -481 -393 -970 -18 -44 -37 -89 -41 -100
-14 -30 -137 -334 -220 -540 -68 -171 -90 -224 -110 -270 -5 -11 -59 -146
-121 -300 -106 -267 -129 -325 -149 -370 -5 -11 -64 -157 -130 -325 -66 -168
-125 -314 -130 -325 -5 -11 -41 -101 -80 -200 -39 -99 -74 -189 -79 -200 -5
-11 -40 -96 -76 -190 -37 -93 -159 -404 -272 -690 -113 -286 -230 -583 -260
-660 -30 -77 -65 -167 -78 -200 -12 -33 -57 -150 -99 -260 -43 -110 -79 -207
-81 -215 -2 -8 -20 -58 -40 -110 -126 -334 -344 -975 -410 -1210 -24 -85 -66
-229 -94 -320 -28 -91 -52 -176 -55 -190 -2 -14 -11 -52 -20 -85 -17 -68 -36
-153 -71 -327 -49 -236 -54 -477 -16 -623 56 -211 144 -300 296 -300 57 0 81
5 130 29 70 35 134 97 165 163 35 72 33 178 -5 258 -25 54 -28 73 -33 191 -4
114 5 230 23 314 3 14 7 45 10 70 2 25 16 100 30 165 15 66 28 126 30 135 28
135 132 558 180 735 15 55 28 105 30 110 1 6 7 28 13 50 7 22 33 112 58 200
60 213 98 335 209 675 78 240 266 777 295 845 5 11 79 208 165 438 269 721
1167 3066 1215 3172 5 11 124 317 265 680 140 363 260 669 265 680 5 11 66
166 135 345 69 179 130 334 135 345 5 11 34 83 64 160 56 147 194 497 341 870
48 121 107 272 132 335 98 251 294 746 302 765 5 11 44 108 86 215 42 107 80
204 85 215 5 11 23 56 40 100 17 44 35 89 39 100 5 11 136 337 290 725 155
388 290 716 300 728 28 37 109 60 178 51 32 -4 83 -10 113 -14 30 -3 66 -8 80
-10 14 -2 48 -7 75 -10 28 -3 61 -7 75 -10 14 -3 41 -7 60 -10 293 -46 758
-151 928 -209 83 -28 241 -95 258 -108 22 -16 134 -21 182 -7 91 25 171 95
215 189 30 64 29 179 -2 238 -51 100 -105 134 -282 181 -179 47 -302 70 -469
86 -36 3 -76 8 -90 10 -29 5 -126 15 -196 20 -27 2 -76 6 -109 9 -62 5 -158
12 -305 21 -47 3 -154 8 -238 10 -168 5 -201 14 -227 65 -31 59 -11 141 90
365 7 17 57 138 110 270 53 132 103 254 110 270 7 17 20 50 30 75 9 25 23 59
30 75 33 70 491 1234 640 1625 36 96 71 184 76 195 25 55 653 1729 663 1770 2
6 6 17 9 25 13 33 116 317 157 435 10 28 47 131 83 230 36 99 97 272 137 385
39 113 76 214 81 225 5 11 60 173 123 360 63 187 122 360 131 385 67 180 280
819 305 915 4 17 42 147 83 290 82 284 227 848 253 985 3 14 9 41 14 60 5 19
11 46 14 60 2 14 12 59 21 100 18 81 20 92 35 178 16 95 19 114 25 182 3 36 8
83 10 105 7 64 7 392 0 485 -19 267 -116 440 -314 559 -111 68 -209 92 -354
90 -64 -1 -118 -4 -120 -5z m162 -600 c17 -19 59 -167 67 -239 3 -22 7 -51 10
-65 5 -28 5 -201 -1 -270 -2 -25 -6 -85 -9 -135 -4 -49 -8 -101 -10 -115 -3
-14 -7 -56 -11 -95 -3 -38 -8 -79 -10 -90 -3 -11 -7 -41 -10 -67 -2 -26 -7
-58 -9 -70 -3 -13 -7 -41 -10 -63 -3 -22 -10 -66 -16 -97 -5 -32 -14 -82 -19
-110 -5 -29 -22 -109 -36 -178 -15 -69 -28 -136 -30 -150 -2 -14 -11 -56 -20
-95 -9 -38 -18 -77 -20 -85 -2 -8 -9 -37 -15 -65 -6 -27 -14 -59 -16 -70 -9
-44 -15 -70 -18 -80 -1 -5 -8 -37 -15 -70 -7 -33 -16 -71 -21 -85 -4 -14 -20
-77 -35 -140 -57 -241 -205 -780 -296 -1077 -10 -35 -27 -91 -38 -125 -60
-201 -532 -1593 -570 -1683 -5 -11 -30 -81 -55 -155 -26 -74 -53 -151 -60
-170 -8 -19 -32 -87 -54 -150 -56 -161 -174 -488 -215 -601 -19 -52 -90 -245
-157 -429 -68 -184 -140 -382 -162 -440 -21 -58 -56 -152 -77 -210 -22 -58
-49 -130 -61 -160 -12 -30 -23 -59 -25 -65 -1 -5 -5 -17 -8 -25 -6 -13 -135
-355 -202 -535 -87 -231 -520 -1348 -540 -1390 -7 -16 -46 -113 -86 -215 -39
-102 -83 -200 -97 -219 -43 -58 -55 -60 -444 -66 -520 -8 -849 -14 -1068 -20
-107 -3 -289 -7 -405 -10 -115 -3 -266 -8 -335 -10 -69 -2 -210 -7 -315 -10
-104 -3 -235 -8 -290 -10 -55 -2 -170 -7 -255 -10 -379 -15 -622 -25 -725 -30
-49 -3 -148 -7 -220 -10 -71 -3 -164 -8 -205 -10 -41 -2 -131 -7 -200 -10 -69
-3 -159 -8 -200 -10 -41 -2 -124 -7 -185 -10 -60 -3 -148 -8 -195 -11 -47 -2
-121 -7 -165 -9 -44 -3 -114 -7 -155 -10 -41 -2 -122 -7 -180 -10 -58 -4 -132
-8 -165 -10 -256 -17 -312 -17 -343 -1 -17 9 -39 30 -48 48 -30 59 -16 93 113
275 65 92 125 177 133 190 22 33 297 416 634 883 502 695 552 764 971 1334
165 225 325 443 355 485 313 428 1183 1581 1450 1920 25 31 59 74 75 95 17 22
57 73 90 115 33 42 91 117 130 166 38 50 75 97 82 105 25 32 194 243 323 405
74 94 137 172 140 175 3 3 61 75 130 160 140 174 571 702 579 710 4 3 24 28
46 55 21 28 42 52 45 55 3 3 37 43 75 90 38 47 72 87 75 90 3 3 39 46 80 95
41 50 77 92 80 95 3 3 52 59 109 125 58 66 112 127 120 136 9 9 39 42 66 74
28 32 61 70 75 84 14 15 43 47 65 71 22 25 79 89 128 141 48 53 95 105 105
116 160 184 628 665 839 863 71 67 246 228 277 255 6 6 52 46 101 90 50 44
115 100 145 125 29 25 58 50 64 55 55 53 312 247 436 330 240 161 405 244 605
305 59 19 76 23 165 39 54 11 138 7 149 -5z m-10629 -10709 c43 -22 64 -71 56
-128 -6 -37 -32 -78 -159 -248 -126 -168 -267 -360 -342 -464 -28 -40 -494
-674 -606 -825 -265 -360 -352 -476 -696 -939 -200 -267 -373 -498 -385 -514
-63 -76 -178 -80 -222 -6 -14 24 -18 58 -21 182 -5 271 -43 445 -148 687 -35
82 -154 290 -192 339 -185 232 -171 217 -290 320 -172 149 -243 203 -425 323
-297 196 -642 361 -1005 482 -77 25 -150 51 -162 58 -35 17 -56 73 -49 127 11
82 75 122 221 135 78 8 194 22 245 30 14 2 48 7 75 11 78 10 118 16 145 21 14
2 48 7 75 9 28 3 61 8 75 10 25 4 72 10 153 20 154 20 336 43 377 49 19 3 58
8 85 11 28 3 64 8 80 10 28 4 69 9 175 21 25 3 79 9 120 14 41 5 98 12 125 15
28 3 64 8 80 10 17 2 53 7 80 10 28 3 68 8 90 10 22 3 60 7 85 10 58 6 112 12
235 26 55 6 116 12 135 14 51 4 151 16 180 21 14 2 57 6 95 9 39 3 88 8 110
11 22 3 56 7 76 9 87 8 167 16 199 20 19 2 64 7 100 10 36 3 81 8 100 10 19 2
67 7 105 10 77 7 118 11 215 21 36 3 85 8 110 9 42 3 107 9 220 20 25 3 72 7
105 10 147 12 190 16 191 18 2 1 36 3 78 5 54 2 83 -1 106 -13z"/>
</g>
</svg>
