<!DOCTYPE svg PUBLIC "-//W3C//DTD SVG 1.1//EN" "http://www.w3.org/Graphics/SVG/1.1/DTD/svg11.dtd">
<!-- Uploaded to: SVG Repo, www.svgrepo.com, Transformed by: SVG Repo Mixer Tools -->
<svg fill="#ffffff" height="800px" width="800px" version="1.1" id="Layer_1" xmlns="http://www.w3.org/2000/svg" xmlns:xlink="http://www.w3.org/1999/xlink" viewBox="0 0 512 512" xml:space="preserve">
<g id="SVGRepo_bgCarrier" stroke-width="0"/>
<g id="SVGRepo_tracerCarrier" stroke-linecap="round" stroke-linejoin="round"/>
<g id="SVGRepo_iconCarrier"> <g> <g> <path d="M303.573,399.471c-5.043-32.009-10.249-65.109-4.949-117.009c0.239-2.398-0.538-4.796-2.159-6.588 s-3.917-2.807-6.332-2.807h-1.536l-6.588-32.939l15.761-31.514c0.589-1.186,0.896-2.492,0.896-3.814V8.533 c0-4.71-3.814-8.533-8.533-8.533h-68.267c-4.719,0-8.533,3.823-8.533,8.533V204.8c0,1.323,0.307,2.637,0.896,3.814l15.761,31.514 l-6.588,32.939h-1.536c-2.415,0-4.719,1.024-6.332,2.816c-1.613,1.792-2.398,4.19-2.159,6.588 c5.299,51.9,0.094,85.001-4.949,117.009c-4.975,31.633-9.685,61.508-3.541,105.182c0.589,4.207,4.198,7.339,8.448,7.339h85.333 c4.25,0,7.859-3.132,8.448-7.347C313.259,460.979,308.548,431.104,303.573,399.471z M230.4,17.067h51.2v185.719l-16.171,32.333 c-0.853,1.698-1.109,3.627-0.734,5.495l6.494,32.452h-30.379l6.494-32.461c0.375-1.86,0.111-3.797-0.734-5.487L230.4,202.786 V17.067z M291.157,494.933h-70.315c-4.292-37.291-0.043-64.307,4.446-92.8c4.668-29.688,9.933-63.087,5.931-112h49.57 c-4.002,48.913,1.254,82.313,5.931,112C291.2,430.626,295.45,457.643,291.157,494.933z"/> </g> </g> </g>
</svg>