<?xml version="1.0" standalone="no"?>
<!DOCTYPE svg PUBLIC "-//W3C//DTD SVG 20010904//EN"
 "http://www.w3.org/TR/2001/REC-SVG-20010904/DTD/svg10.dtd">
<svg version="1.0" xmlns="http://www.w3.org/2000/svg"
 width="2000.000000pt" height="1400.000000pt" viewBox="0 0 2000.000000 1400.000000"
 preserveAspectRatio="xMidYMid meet">

<g transform="translate(0.000000,1400.000000) scale(0.100000,-0.100000)"
fill="#000000" stroke="none">
<path d="M0 7000 l0 -7000 10000 0 10000 0 0 7000 0 7000 -10000 0 -10000 0 0
-7000z m9125 1806 c25 -18 23 -28 -83 -381 -126 -426 -342 -1215 -342 -1253 0
-10 31 -12 137 -10 l136 3 32 145 c68 305 203 766 236 806 15 19 53 18 70 -2
10 -12 10 -22 2 -42 -55 -137 -109 -287 -138 -382 -119 -398 -215 -913 -214
-1145 l0 -110 41 80 c22 44 80 181 129 305 152 392 174 435 232 470 43 27 73
25 102 -5 59 -58 3 -214 -125 -346 -39 -40 -70 -81 -70 -91 0 -32 29 -77 54
-84 49 -12 101 34 173 151 59 97 121 220 133 265 19 71 37 100 64 100 43 0 52
-24 31 -88 -20 -63 -34 -224 -17 -207 5 6 33 46 62 90 90 135 170 243 186 249
24 9 54 -12 54 -37 0 -13 -34 -66 -76 -122 -95 -125 -204 -286 -204 -302 0 -7
16 -31 36 -53 85 -94 145 -32 323 333 58 117 112 177 167 184 37 5 44 2 59
-20 21 -33 6 -67 -29 -67 -33 0 -71 -48 -117 -145 -46 -99 -91 -265 -72 -265
11 0 73 100 134 215 86 165 119 199 159 167 l22 -18 -26 -84 c-42 -137 -53
-280 -26 -330 6 -11 16 -18 22 -14 18 12 95 186 189 432 10 26 50 30 69 7 10
-12 9 -34 -8 -112 -11 -54 -19 -99 -18 -101 2 -1 16 19 31 45 102 174 192 283
236 283 62 0 66 -60 19 -261 -35 -145 -49 -282 -32 -293 13 -8 56 69 117 209
121 279 184 361 273 353 l35 -3 48 119 c27 65 51 128 55 139 6 20 5 20 -451
13 -338 -5 -461 -4 -471 5 -16 13 -19 45 -4 54 5 3 222 5 483 5 l473 0 69 195
c38 108 77 203 86 211 21 19 56 11 64 -16 3 -10 -9 -55 -29 -102 -19 -45 -50
-129 -70 -185 l-35 -103 612 0 c337 0 680 -3 762 -5 83 -2 251 -7 375 -10 124
-3 252 -8 285 -10 33 -2 112 -7 175 -10 103 -6 179 -12 360 -31 568 -58 969
-156 1155 -284 64 -44 125 -108 146 -153 23 -51 25 -138 4 -197 -61 -172 -312
-374 -709 -569 -490 -242 -1089 -428 -1591 -497 -231 -31 -445 -10 -578 58
-94 48 -179 156 -223 284 -24 69 -28 97 -30 219 -3 171 18 304 76 478 41 122
41 136 2 137 -18 0 -49 55 -62 112 -7 26 -16 50 -20 53 -23 14 -108 -168 -222
-475 -22 -59 -27 -65 -55 -68 -43 -4 -57 23 -63 127 l-5 85 -37 -60 c-48 -78
-116 -141 -161 -149 -62 -12 -125 37 -149 116 l-11 38 -38 -95 c-103 -254
-157 -322 -229 -284 -22 12 -40 87 -40 165 0 91 43 389 85 585 5 22 4 22 -4 5
-6 -11 -44 -103 -86 -204 -98 -237 -120 -280 -150 -291 -37 -14 -74 4 -91 46
l-15 36 -39 -61 c-26 -40 -46 -61 -59 -61 -89 0 -104 105 -52 367 17 84 31
155 31 159 0 28 -135 -195 -223 -369 -38 -76 -77 -142 -87 -147 -11 -6 -24 -4
-38 6 -18 12 -22 25 -22 67 l-1 52 -32 -60 c-38 -70 -71 -89 -115 -65 -41 23
-64 82 -71 179 l-6 86 -53 -97 c-51 -94 -98 -148 -129 -148 -28 0 -73 56 -73
91 l0 33 -17 -24 c-90 -135 -195 -158 -287 -61 l-30 31 -29 -50 c-29 -51 -34
-54 -61 -44 -25 9 -19 41 19 110 34 60 35 64 24 116 -6 29 -13 60 -16 68 -2 9
-19 -14 -41 -55 -116 -220 -230 -295 -315 -207 -14 15 -33 45 -43 67 l-16 40
-43 -120 c-56 -160 -107 -276 -140 -319 -22 -29 -34 -36 -61 -36 -28 0 -37 6
-51 33 -34 62 -19 305 38 601 10 56 19 104 19 108 0 5 -63 8 -140 8 l-139 0
-12 -42 c-34 -129 -117 -495 -160 -712 -27 -137 -52 -253 -55 -258 -10 -17
-63 -8 -77 13 -13 18 -13 29 6 97 19 71 20 85 9 192 -24 241 -89 394 -225 533
-58 59 -71 67 -82 56 -15 -16 -548 -904 -855 -1424 -117 -198 -218 -366 -224
-373 -14 -14 -42 -7 -50 13 -2 7 30 73 73 147 42 73 146 252 231 398 201 346
495 849 630 1075 58 99 112 190 118 201 11 20 7 24 -43 50 -104 52 -95 74 35
84 50 5 93 10 94 12 5 6 228 383 596 1008 199 338 369 621 378 628 21 16 34
15 57 -2z m-2141 -465 c16 -18 14 -29 -39 -222 -96 -346 -245 -943 -237 -951
4 -4 79 -9 167 -10 152 -3 160 -4 160 -23 0 -19 -8 -20 -172 -25 -95 -3 -174
-8 -177 -10 -11 -12 -258 -1095 -346 -1515 -17 -82 -36 -174 -42 -203 -13 -61
-36 -81 -74 -63 -29 13 -32 25 -38 191 -10 268 -100 513 -285 775 -77 109
-304 337 -427 427 -251 186 -593 346 -783 368 -76 8 -91 18 -91 57 0 51 -14
50 814 41 423 -5 773 -5 777 -1 4 5 166 267 359 583 194 316 360 581 368 588
22 17 46 15 66 -7z m3424 -710 c5 -30 -12 -41 -65 -41 -33 0 -45 5 -53 21 -19
34 4 50 64 47 45 -3 51 -6 54 -27z m-3273 -856 c14 -13 25 -35 25 -47 0 -56
-61 -93 -106 -63 -19 12 -24 24 -24 60 0 38 4 46 28 59 38 21 49 20 77 -9z
m1803 -631 c-3 -65 -7 -79 -27 -95 -25 -21 -71 -25 -101 -9 -10 5 -23 23 -28
40 -9 26 -9 30 6 30 10 0 22 -10 27 -22 12 -27 56 -36 73 -15 7 8 13 36 15 63
2 49 2 49 -30 52 -21 2 -33 9 -33 18 0 10 13 14 51 14 l51 0 -4 -76z m657 -6
c20 -46 39 -89 42 -95 9 -21 -26 -14 -37 7 -8 16 -21 20 -60 20 -39 0 -52 -4
-60 -20 -9 -17 -40 -29 -40 -16 0 2 14 35 31 73 17 37 35 78 40 91 18 45 44
27 84 -60z m225 2 l0 -80 50 0 c38 0 50 -4 50 -15 0 -12 -14 -15 -65 -15 l-65
0 0 95 c0 78 3 95 15 95 12 0 15 -16 15 -80z m390 65 c0 -12 -13 -15 -55 -15
-52 0 -55 -1 -55 -25 0 -23 3 -25 50 -25 38 0 50 -4 50 -15 0 -11 -12 -15 -50
-15 -43 0 -50 -3 -50 -19 0 -17 8 -20 53 -23 38 -2 52 -7 52 -18 0 -12 -14
-15 -70 -15 l-70 0 -2 93 -2 92 74 0 c60 0 75 -3 75 -15z m194 -17 l26 -33 17
24 c10 14 21 29 24 34 4 5 14 7 23 5 15 -2 13 -9 -13 -46 l-32 -43 31 -44 c34
-49 36 -55 16 -55 -7 0 -26 16 -41 36 l-27 36 -26 -36 c-14 -20 -34 -36 -44
-36 -17 0 -16 5 12 44 36 54 37 59 5 100 -29 38 -31 46 -11 46 8 0 26 -15 40
-32z m391 -50 c20 -46 39 -89 42 -95 9 -21 -26 -14 -37 7 -8 16 -21 20 -60 20
-39 0 -52 -4 -60 -20 -9 -17 -40 -29 -40 -15 0 2 19 45 41 95 29 62 47 90 59
90 12 0 29 -26 55 -82z m268 20 l47 -61 0 62 c0 54 2 61 20 61 19 0 20 -7 20
-95 0 -116 -8 -120 -76 -33 l-49 63 -3 -63 c-2 -46 -7 -62 -17 -62 -12 0 -15
19 -15 95 0 70 3 95 13 95 6 -1 33 -28 60 -62z m388 33 c37 -37 39 -88 6 -127
-18 -21 -35 -28 -76 -32 -37 -3 -56 -1 -61 8 -9 14 -11 159 -3 173 2 4 27 7
54 7 42 0 55 -5 80 -29z m329 14 c0 -12 -13 -15 -55 -15 -52 0 -55 -1 -55 -25
0 -23 3 -25 50 -25 38 0 50 -4 50 -15 0 -11 -12 -15 -50 -15 -45 0 -50 -2 -50
-23 0 -20 4 -22 40 -19 50 5 71 -3 64 -23 -5 -11 -22 -15 -70 -15 l-64 0 0 95
0 95 70 0 c56 0 70 -3 70 -15z m290 -5 c26 -26 25 -51 -1 -84 l-21 -27 28 -30
c25 -26 26 -29 8 -29 -11 0 -35 16 -54 35 -44 45 -60 45 -60 -1 0 -28 -3 -35
-17 -32 -15 3 -18 17 -21 96 l-3 92 60 0 c48 0 65 -4 81 -20z m-2950 -150 c0
-11 -7 -20 -15 -20 -15 0 -21 21 -8 33 12 13 23 7 23 -13z"/>
<path d="M8941 8417 c-13 -23 -186 -311 -384 -639 -197 -328 -358 -599 -356
-603 2 -3 101 -8 220 -11 l216 -5 22 83 c11 46 46 175 76 288 77 284 236 913
233 922 -2 4 -14 -12 -27 -35z"/>
<path d="M11467 7508 c-79 -282 -125 -532 -153 -826 -6 -72 3 -145 17 -136 16
9 106 196 175 362 92 221 148 333 182 365 68 65 152 35 152 -55 0 -77 -100
-247 -184 -314 -40 -32 -45 -58 -21 -104 30 -58 93 -46 151 26 52 67 194 321
194 349 0 7 9 20 20 30 17 15 24 16 45 7 31 -14 31 -16 0 -127 -14 -49 -25
-96 -25 -104 0 -7 34 54 75 137 72 143 115 202 150 202 29 0 55 -38 75 -109
23 -88 33 -100 60 -83 11 6 29 18 40 24 16 11 23 10 37 -5 17 -17 17 -20 0
-65 -48 -125 -97 -287 -114 -368 -25 -126 -25 -366 1 -449 51 -168 149 -261
322 -305 238 -62 767 22 1323 209 534 180 1005 425 1217 635 129 128 166 225
124 324 -92 214 -604 364 -1460 427 -41 3 -102 8 -135 10 -278 21 -730 31
-1561 34 l-681 2 -26 -93z"/>
<path d="M11201 7195 c-57 -80 -132 -275 -131 -344 1 -36 102 167 171 342 25
62 4 64 -40 2z"/>
<path d="M9377 7189 c-29 -39 -82 -148 -74 -155 7 -7 75 88 93 131 22 53 12
65 -19 24z"/>
<path d="M11728 7189 c-28 -38 -48 -74 -72 -134 l-16 -40 35 40 c40 46 89 139
83 156 -2 7 -15 -2 -30 -22z"/>
<path d="M8141 7086 l-23 -37 66 -60 c119 -109 203 -265 246 -454 10 -44 19
-77 19 -73 1 5 39 150 86 324 47 174 84 318 82 321 -3 2 -106 6 -229 10 l-225
6 -22 -37z"/>
<path d="M8020 7106 c0 -2 7 -6 15 -10 8 -3 15 -1 15 4 0 6 -7 10 -15 10 -8 0
-15 -2 -15 -4z"/>
<path d="M6552 7603 c-150 -234 -271 -427 -269 -429 8 -8 339 -6 346 2 9 10
20 57 131 538 39 170 69 310 68 311 -2 2 -126 -188 -276 -422z"/>
<path d="M6412 7102 l-183 -2 -94 -145 c-71 -109 -99 -145 -115 -145 -41 0
-33 30 44 157 42 70 74 128 72 130 -2 3 -266 1 -586 -3 l-582 -7 71 -33 c171
-79 394 -226 556 -364 323 -278 518 -575 629 -959 l33 -114 111 449 c61 247
141 575 177 729 36 154 68 285 70 292 6 17 -6 18 -203 15z"/>
<path d="M9522 6145 c-18 -38 -15 -45 18 -45 17 0 30 4 30 10 0 15 -23 60 -30
60 -4 0 -12 -11 -18 -25z"/>
<path d="M10722 6145 c-18 -38 -15 -45 18 -45 17 0 30 4 30 10 0 15 -23 60
-30 60 -4 0 -12 -11 -18 -25z"/>
<path d="M11350 6130 l0 -60 34 0 c37 0 66 28 66 62 0 28 -37 58 -70 58 l-30
0 0 -60z"/>
<path d="M11970 6161 c0 -30 2 -31 41 -31 38 0 40 1 37 28 -3 23 -8 27 -40 30
-36 3 -38 2 -38 -27z"/>
</g>
</svg>
