<?xml version="1.0" standalone="no"?>
<!DOCTYPE svg PUBLIC "-//W3C//DTD SVG 20010904//EN" "http://www.w3.org/TR/2001/REC-SVG-20010904/DTD/svg10.dtd">
<svg version="1.0" xmlns="http://www.w3.org/2000/svg"
 width="210" height="28" viewBox="0 0 210 28"
 preserveAspectRatio="xMidYMid meet">

<g transform="scale(.1)"
fill="#000000" stroke="none">
<path d="M10658 9216 c-125 -51 -311 -217 -553 -491 -181 -206 -306 -363 -599
-755 -137 -184 -254 -338 -259 -341 -4 -3 -164 -9 -355 -13 -191 -4 -367 -8
-392 -10 -25 -2 -144 -7 -265 -11 -243 -8 -265 -13 -265 -64 0 -50 18 -55 124
-36 81 15 107 15 187 5 407 -53 604 -257 484 -502 -28 -57 -85 -121 -126 -142
-13 -6 -30 -23 -38 -37 -30 -54 29 -119 93 -103 65 16 194 172 545 662 l152
212 117 0 c236 1 439 -1 497 -5 224 -17 311 -28 324 -40 11 -11 9 -26 -17 -97
-30 -84 -156 -412 -251 -655 -60 -151 -40 -138 -211 -148 -228 -13 -787 -60
-970 -80 -74 -9 -155 -18 -180 -20 -730 -76 -1645 -223 -2115 -341 -155 -39
-255 -91 -255 -134 0 -55 137 -98 250 -78 30 5 87 9 127 9 57 -1 76 3 95 19
23 20 23 20 4 35 -11 8 -17 17 -14 20 14 14 538 139 853 204 439 90 1144 196
1670 251 110 11 218 23 240 25 36 4 134 13 348 31 l78 7 -22 -54 c-12 -30 -28
-73 -36 -96 -8 -24 -18 -45 -22 -47 -6 -4 -48 -9 -196 -22 -33 -2 -80 -7 -105
-9 -360 -36 -436 -49 -495 -83 -111 -66 102 -128 231 -68 28 13 105 33 170 45
127 22 355 53 359 49 2 -2 -37 -106 -86 -233 -152 -391 -325 -864 -363 -995
-59 -198 -58 -310 3 -318 38 -6 46 13 47 111 1 118 44 288 161 630 113 334
281 789 296 803 13 13 270 35 682 59 325 20 821 25 983 12 91 -8 126 -7 134 1
18 18 4 24 -94 39 -170 26 -986 25 -1343 -1 -124 -10 -304 -19 -321 -17 -11 1
48 175 65 192 3 4 53 10 111 13 110 7 207 13 325 21 375 25 965 41 1435 38
358 -2 907 -17 1020 -28 25 -2 95 -7 155 -10 61 -4 126 -8 145 -10 19 -2 89
-9 155 -15 390 -37 600 -86 600 -140 0 -8 -24 -29 -53 -46 -58 -35 -66 -51
-24 -46 102 14 174 91 125 134 -59 52 -471 126 -883 158 -753 58 -2158 60
-2992 4 -56 -4 -88 -2 -88 4 0 5 53 146 119 313 65 167 140 361 167 431 47
122 50 128 77 128 35 0 189 -38 201 -50 4 -4 -15 -66 -42 -138 -64 -163 -92
-272 -92 -357 0 -61 3 -69 30 -97 25 -24 36 -29 58 -23 43 10 96 51 151 117
42 49 52 57 57 41 22 -71 55 -98 116 -96 83 4 218 111 379 301 46 53 87 102
92 107 18 19 0 -121 -22 -170 -12 -27 -48 -76 -79 -109 -67 -71 -142 -168
-142 -184 0 -49 147 56 230 163 23 30 57 65 76 80 l34 26 30 -35 c85 -96 208
-100 353 -9 l62 39 0 -78 c0 -71 2 -80 27 -104 20 -20 37 -27 64 -27 34 0 45
7 115 81 43 45 80 82 82 82 3 0 7 -13 10 -29 8 -39 33 -61 69 -61 38 0 73 25
176 124 45 44 82 78 82 75 0 -2 -16 -42 -35 -89 -51 -126 -45 -182 21 -182 21
0 42 17 93 73 88 99 264 280 268 275 2 -2 -3 -32 -12 -67 -32 -139 -15 -209
53 -209 61 1 125 38 252 146 13 11 15 2 15 -76 0 -79 3 -91 23 -113 65 -69
124 -25 290 219 54 79 65 91 86 87 46 -9 81 50 57 96 -8 14 7 43 71 140 44 67
83 119 86 117 2 -3 -21 -65 -51 -138 -99 -240 -137 -370 -138 -480 -1 -109 27
-144 106 -136 55 7 112 47 201 141 l72 75 5 -45 c5 -50 28 -80 74 -99 69 -29
163 24 317 180 54 55 96 93 93 85 -31 -74 -81 -253 -81 -289 -1 -43 0 -45 29
-45 26 0 33 7 55 50 70 142 197 343 235 375 12 10 19 7 37 -15 41 -47 123 -49
239 -6 93 35 214 121 170 121 -5 0 -35 -17 -67 -39 -79 -51 -143 -74 -214 -75
-98 -1 -116 42 -50 118 45 51 37 106 -16 106 -26 0 -75 -53 -141 -155 -60 -91
-74 -105 -35 -33 48 87 39 134 -25 126 -24 -3 -33 -14 -64 -76 -26 -54 -58
-96 -120 -158 -223 -226 -392 -287 -357 -130 12 53 21 62 66 70 77 13 178 114
202 202 11 37 10 47 -4 69 -24 37 -87 35 -149 -5 -58 -37 -140 -145 -169 -225
-19 -49 -39 -77 -118 -156 -127 -129 -195 -163 -235 -119 -27 30 -17 151 25
270 74 216 264 586 442 864 134 209 125 189 105 220 -19 28 -53 34 -79 14 -8
-7 -32 -42 -53 -78 -93 -158 -345 -556 -423 -668 -62 -89 -90 -122 -101 -118
-113 37 -126 39 -183 22 -70 -20 -130 -78 -170 -163 -45 -95 -184 -206 -287
-228 l-34 -7 5 43 c3 24 30 98 61 164 72 156 73 159 47 185 -39 39 -103 0
-229 -139 -47 -53 -110 -120 -139 -151 l-53 -55 66 134 c71 145 80 190 44 215
-32 22 -61 6 -87 -50 -27 -56 -194 -231 -287 -301 -54 -41 -60 -43 -72 -27
-24 33 2 129 55 203 17 23 29 48 26 55 -4 11 -9 41 -13 83 -2 22 -58 43 -113
43 -103 -1 -199 -72 -266 -197 -67 -127 -252 -207 -359 -157 -44 21 -91 80
-75 96 6 6 84 61 173 122 89 61 167 119 173 128 7 11 7 26 0 45 -7 21 -17 29
-41 31 -27 3 -51 -13 -184 -122 -85 -68 -157 -122 -161 -120 -5 3 -8 33 -8 68
0 127 -48 200 -106 161 -23 -15 -26 -22 -21 -59 3 -22 9 -50 12 -62 5 -17 -17
-44 -122 -150 -149 -150 -264 -234 -322 -234 -20 0 -42 5 -49 12 -15 15 -15
55 -1 96 9 26 19 34 66 47 124 36 247 220 187 279 -20 21 -93 21 -124 0 -88
-59 -168 -167 -200 -271 -29 -95 -186 -248 -235 -229 -15 5 -17 14 -11 61 8
70 54 215 112 353 51 123 40 102 219 382 254 395 496 804 510 862 10 40 -10
68 -49 68 -27 0 -42 -9 -79 -49 -101 -108 -304 -445 -478 -796 -66 -132 -123
-239 -127 -238 -5 1 -48 7 -98 13 -117 14 -134 18 -134 31 0 7 36 109 81 228
94 251 255 725 299 879 89 314 92 455 11 496 -42 22 -96 20 -163 -8z m120 -78
c30 -30 4 -252 -58 -495 -32 -123 -227 -712 -303 -913 l-43 -115 -65 1 c-506
8 -866 17 -872 23 -8 8 223 333 432 610 417 550 682 827 849 887 46 16 46 16
60 2z m-1582 -1562 c4 -12 -179 -273 -305 -435 -27 -35 -51 -22 -51 27 0 107
-114 234 -276 309 -84 38 -103 59 -61 67 30 7 303 26 507 35 91 4 169 9 173 9
4 1 10 -4 13 -12z m1833 -243 c-29 -39 -63 -73 -73 -73 -6 0 10 20 34 45 45
46 62 58 39 28z m3201 -22 c-12 -17 -31 -36 -43 -43 -21 -11 -21 -10 -8 8 51
67 96 97 51 35z m-1980 21 c0 -16 -220 -272 -233 -272 -3 0 -1 18 4 41 19 82
86 185 143 220 31 19 86 26 86 11z m1270 -20 c0 -18 -207 -262 -222 -262 -17
0 -1 96 25 153 47 102 106 146 170 124 15 -5 27 -12 27 -15z"/>
<path d="M7400 8598 c-22 -24 -152 -203 -289 -398 -364 -519 -660 -910 -695
-918 -12 -3 -61 29 -342 220 -153 103 -259 125 -367 75 -287 -131 -623 -853
-791 -1697 -67 -336 -89 -514 -90 -740 -1 -176 2 -213 18 -260 56 -166 165
-147 388 69 145 139 266 283 460 542 319 427 635 907 953 1444 65 110 121 203
125 208 3 4 40 16 81 28 130 36 379 177 379 215 0 22 -18 17 -84 -25 -90 -56
-172 -96 -250 -120 -37 -11 -72 -21 -76 -21 -5 0 25 60 67 133 304 534 585
1092 614 1216 18 80 -39 96 -101 29z m-107 -320 c-102 -196 -361 -666 -513
-927 l-83 -144 -66 6 c-77 7 -161 34 -161 51 0 7 41 65 90 130 50 64 141 185
203 269 523 703 615 822 624 813 3 -3 -40 -92 -94 -198z m-1358 -772 c39 -18
125 -74 193 -124 68 -50 147 -105 177 -122 30 -17 55 -37 55 -43 0 -16 -208
-221 -279 -277 -72 -55 -143 -90 -183 -90 -67 0 -102 -57 -61 -102 37 -41 129
-9 238 81 67 56 136 130 264 284 40 48 75 87 77 87 3 0 31 -9 63 -20 32 -10
86 -23 120 -27 l62 -8 -174 -290 c-572 -957 -985 -1559 -1266 -1848 -109 -112
-179 -165 -245 -187 -38 -12 -41 -12 -62 14 -42 48 -49 96 -48 326 1 235 23
419 85 718 101 490 288 1013 469 1307 93 152 234 310 303 340 58 26 134 19
212 -19z"/>
<path d="M7267 7119 c-24 -14 -47 -62 -47 -98 0 -32 48 -81 79 -81 27 0 58
118 40 152 -20 38 -40 46 -72 27z"/>
<path d="M10150 6110 c0 -17 7 -20 45 -20 l45 0 0 -80 c0 -99 -17 -123 -83
-118 -36 3 -44 7 -57 35 -10 22 -22 33 -37 33 -27 0 -28 -8 -9 -55 25 -59 111
-84 175 -50 45 23 61 69 61 179 l0 96 -70 0 c-63 0 -70 -2 -70 -20z"/>
<path d="M11132 5992 c-34 -77 -62 -143 -62 -146 0 -3 11 -5 25 -4 16 2 28 12
36 30 11 27 13 28 90 28 77 0 79 -1 94 -29 14 -29 55 -41 55 -16 0 5 -27 69
-59 140 -54 121 -61 130 -88 133 -29 3 -31 0 -91 -136z m95 -40 c-27 -2 -51
-1 -54 2 -3 3 7 31 22 63 l27 58 28 -60 27 -60 -50 -3z"/>
<path d="M11601 5991 c0 -101 3 -141 12 -144 7 -3 53 -4 102 -3 86 1 90 2 91
24 1 21 -2 22 -77 22 l-79 0 0 120 0 120 -24 0 -25 0 0 -139z"/>
<path d="M12040 5985 l0 -144 105 0 c105 0 105 0 105 24 0 24 -2 25 -78 25
-43 0 -81 2 -84 5 -2 3 -3 18 0 35 l4 30 74 0 c72 0 74 1 74 25 0 24 -2 25
-75 25 l-75 0 0 35 0 35 80 0 c79 0 80 0 80 25 l0 25 -105 0 -105 0 0 -145z"/>
<path d="M12514 6065 c25 -36 46 -69 46 -74 0 -4 -20 -36 -45 -72 -25 -35 -45
-67 -45 -71 0 -5 11 -8 25 -8 19 0 33 13 61 55 20 30 38 55 40 55 2 0 22 -25
44 -55 25 -34 48 -55 60 -55 29 0 25 15 -26 86 l-46 64 46 65 c25 36 46 68 46
70 0 3 -11 5 -24 5 -18 0 -35 -14 -61 -50 -20 -27 -38 -50 -40 -50 -2 0 -17
23 -35 50 -27 42 -37 50 -62 50 l-30 0 46 -65z"/>
<path d="M13041 6108 c-5 -13 -32 -74 -60 -137 -28 -62 -51 -118 -51 -123 0
-21 46 -2 58 25 13 26 16 27 90 27 74 0 78 -1 93 -28 14 -24 59 -43 59 -24 0
4 -28 69 -62 145 -58 130 -63 137 -90 137 -20 0 -31 -6 -37 -22z m67 -91 c12
-28 22 -55 22 -59 0 -5 -24 -8 -54 -8 l-54 0 26 60 c15 33 29 60 32 60 3 0 15
-24 28 -53z"/>
<path d="M13460 5991 c0 -142 3 -151 40 -151 5 0 11 45 12 100 l3 100 79 -100
c50 -63 86 -100 95 -98 14 3 16 26 19 146 l3 142 -25 0 c-25 0 -25 -1 -28 -96
l-3 -96 -75 95 c-54 70 -81 96 -97 97 -23 0 -23 -1 -23 -139z"/>
<path d="M13970 5985 l0 -147 78 5 c92 5 126 19 153 64 37 59 25 146 -26 193
-23 22 -37 25 -116 28 l-89 4 0 -147z m178 72 c16 -17 23 -35 24 -64 1 -69
-36 -103 -112 -103 l-40 0 0 101 0 102 52 -6 c36 -5 60 -14 76 -30z"/>
<path d="M14470 5986 l0 -144 105 -1 105 -1 0 25 c0 25 -1 25 -80 25 l-80 0 0
35 0 34 73 3 c66 3 72 5 75 26 3 21 0 22 -72 22 l-76 0 0 35 0 35 80 0 c79 0
80 0 80 25 l0 25 -105 0 -105 0 0 -144z"/>
<path d="M14930 5984 c0 -145 0 -145 23 -142 19 3 22 10 25 51 3 45 5 47 32
47 22 0 39 -11 72 -50 28 -32 51 -50 66 -50 32 0 27 19 -15 62 l-37 38 34 29
c30 24 34 34 33 72 -1 34 -7 48 -28 66 -23 20 -37 23 -116 23 l-89 0 0 -146z
m174 84 c34 -48 8 -78 -70 -78 l-54 0 0 50 0 50 54 0 c45 0 58 -4 70 -22z"/>
<path d="M10531 5886 c-15 -18 -3 -46 20 -46 25 0 35 26 19 45 -15 19 -24 19
-39 1z"/>
</g>
</svg>
